<svg id="Layer_1" enable-background="new 0 0 64 64" viewBox="0 0 64 64" xmlns="http://www.w3.org/2000/svg">
  <g fill="#FFFFFF">
    <g>
      <path d="m32 45.5c-7.444 0-13.5-6.056-13.5-13.5s6.056-13.5 13.5-13.5 13.5 6.056 13.5 13.5-6.056 13.5-13.5 13.5zm0-24c-5.79 0-10.5 4.71-10.5 10.5s4.71 10.5 10.5 10.5 10.5-4.71 10.5-10.5-4.71-10.5-10.5-10.5z"/>
    </g>
    <g>
      <path d="m32 60c-.829 0-1.5-.672-1.5-1.5v-8.5c0-.828.671-1.5 1.5-1.5s1.5.672 1.5 1.5v8.5c0 .828-.671 1.5-1.5 1.5z"/>
    </g>
    <g>
      <path d="m32 15.5c-.829 0-1.5-.671-1.5-1.5v-8.5c0-.829.671-1.5 1.5-1.5s1.5.671 1.5 1.5v8.5c0 .829-.671 1.5-1.5 1.5z"/>
    </g>
    <g>
      <path d="m50.738 52.238c-.384 0-.768-.146-1.061-.439l-5.738-5.738c-.586-.586-.586-1.535 0-2.121s1.535-.586 2.121 0l5.738 5.738c.586.586.586 1.535 0 2.121-.292.293-.676.439-1.06.439z"/>
    </g>
    <g>
      <path d="m19 20.5c-.384 0-.768-.146-1.061-.439l-5.738-5.738c-.586-.585-.586-1.536 0-2.121.586-.586 1.535-.586 2.121 0l5.738 5.738c.586.585.586 1.536 0 2.121-.292.293-.676.439-1.06.439z"/>
    </g>
    <g>
      <path d="m45 20.5c-.384 0-.768-.146-1.061-.439-.586-.586-.586-1.536 0-2.121l5.738-5.738c.586-.586 1.535-.586 2.121 0s.586 1.536 0 2.121l-5.738 5.738c-.292.293-.676.439-1.06.439z"/>
    </g>
    <g>
      <path d="m13.262 52.238c-.384 0-.768-.146-1.061-.439-.586-.586-.586-1.535 0-2.121l5.738-5.738c.586-.586 1.535-.586 2.121 0s.586 1.535 0 2.121l-5.738 5.738c-.292.293-.676.439-1.06.439z"/>
    </g>
    <g>
      <path d="m58.5 33.5h-8.5c-.828 0-1.5-.671-1.5-1.5s.672-1.5 1.5-1.5h8.5c.828 0 1.5.671 1.5 1.5s-.672 1.5-1.5 1.5z"/>
    </g>
    <g>
      <path d="m14 33.5h-8.5c-.829 0-1.5-.671-1.5-1.5s.671-1.5 1.5-1.5h8.5c.829 0 1.5.671 1.5 1.5s-.671 1.5-1.5 1.5z"/>
    </g>
  </g>
</svg>